<?xml version="1.0" encoding="UTF-8"?>
<svg id="Layer_1" xmlns="http://www.w3.org/2000/svg" version="1.1" viewBox="0 0 300 300">
  <!-- Generator: Adobe Illustrator 29.8.1, SVG Export Plug-In . SVG Version: 2.1.1 Build 2)  -->
  <defs>
    <style>
      .st0 {
        stroke: #000;
        stroke-width: 13.5px;
      }

      .st0, .st1 {
        fill: none;
        stroke-linecap: round;
        stroke-linejoin: round;
      }

      .st1 {
        stroke: #fff;
        stroke-width: 27px;
      }

      .st2 {
        fill: #5f9341;
      }
    </style>
  </defs>
  <g>
    <path class="st2" d="M123,285V82.5c0-7.46-6.04-13.5-13.5-13.5H42c-14.91,0-27,12.09-27,27v162c0,14.91,12.09,27,27,27h162c14.91,0,27-12.09,27-27v-67.5c0-7.46-6.04-13.5-13.5-13.5H15"/>
    <path class="st1" d="M123,285V82.5c0-7.46-6.04-13.5-13.5-13.5H42c-14.91,0-27,12.09-27,27v162c0,14.91,12.09,27,27,27h162c14.91,0,27-12.09,27-27v-67.5c0-7.46-6.04-13.5-13.5-13.5H15"/>
    <path class="st0" d="M123,285V82.5c0-7.46-6.04-13.5-13.5-13.5H42c-14.91,0-27,12.09-27,27v162c0,14.91,12.09,27,27,27h162c14.91,0,27-12.09,27-27v-67.5c0-7.46-6.04-13.5-13.5-13.5H15"/>
  </g>
  <g>
    <rect class="st2" x="177" y="15" width="108" height="108" rx="13.5" ry="13.5"/>
    <rect class="st1" x="177" y="15" width="108" height="108" rx="13.5" ry="13.5"/>
    <rect class="st0" x="177" y="15" width="108" height="108" rx="13.5" ry="13.5"/>
  </g>
</svg>