<?xml version="1.0" encoding="UTF-8"?>
<svg id="Layer_1" xmlns="http://www.w3.org/2000/svg" version="1.1" viewBox="0 0 24 24">
  <!-- Generator: Adobe Illustrator 29.8.1, SVG Export Plug-In . SVG Version: 2.1.1 Build 2)  -->
  <defs>
    <style>
      .st0 {
        fill: #fff;
      }
    </style>
  </defs>
  <path class="st0" d="M12.56,22.31c-.48-.04-.84-.47-.8-.95.04-.45.42-.81.88-.81,0,0,5.59.46,5.59.46.02,0,.04-.01.05-.03.01-.02.01-.05,0-.07l-4.82-6.75-9.41-.03s-.05.01-.06.04c-.01.02,0,.05.01.07l3.63,4.09c.32.36.29.92-.07,1.24-.16.14-.37.22-.58.22-.25,0-.49-.11-.66-.29L1.29,13.85c-.06-.06-.1-.13-.14-.21-.06-.15-.08-.22-.08-.29v-.18c0-.07.02-.14.05-.21.07-.16.12-.23.18-.29l5.02-5.65c.17-.19.41-.3.66-.3.22,0,.42.08.58.22.18.16.28.37.29.61.01.23-.06.46-.22.64l-3.63,4.09s-.02.04-.01.07c0,.02.03.04.06.04h9.29l5.12-9.15s.01-.05,0-.07c-.01-.02-.03-.03-.05-.03,0,0-5.62.94-5.62.94-.05,0-.1.01-.14.01-.43,0-.8-.31-.87-.73-.04-.23.02-.46.15-.66s.34-.32.57-.36l7.53-1.26c.05,0,.1-.01.15-.01.03,0,.06,0,.09,0,0,0,0,0,.01,0,.14.02.26.06.36.12.09.05.16.12.22.2.1.15.14.24.16.33l1.88,6.9c.06.23.03.46-.09.67-.12.2-.31.35-.53.41-.08.02-.16.03-.24.03-.39,0-.74-.27-.84-.65l-1.28-4.68s-.03-.04-.05-.05c0,0,0,0,0,0-.02,0-.04.01-.05.03l-4.87,8.77,4.79,6.76s.03.03.05.03c0,0,0,0,.01,0,.02,0,.04-.02.05-.04l1.36-5c.1-.39.44-.65.84-.65.08,0,.16.01.24.03.47.13.75.61.62,1.08l-1.88,6.9c-.02.08-.05.16-.09.22-.04.06-.08.12-.12.17-.05.05-.09.09-.13.12-.04.03-.08.05-.12.07-.05.02-.1.04-.15.06l-.1.02s-.1.01-.14.01l-7.62-.63Z"/>
  <path d="M20.17,1.13s.05,0,.08,0c.01,0,.03,0,.04,0,0,0,0,0,0,0,.11.02.22.05.31.11.08.05.15.11.21.19.02.02.03.04.05.07,0,0,0,0,0,.01.04.07.07.14.09.22l1.88,6.9c.06.21.03.43-.08.62-.11.19-.28.33-.49.38-.07.02-.15.03-.22.03-.37,0-.69-.25-.78-.6l-1.28-4.68s-.06-.09-.11-.09c0,0-.01,0-.02,0-.05,0-.09.02-.11.06l-4.87,8.77s-.02.09,0,.13l4.79,6.7s.06.05.1.05c0,0,.01,0,.02,0,.05,0,.09-.04.1-.09l1.36-5c.1-.36.41-.6.78-.6.07,0,.15,0,.22.03.44.12.69.57.57,1l-1.88,6.9c-.02.08-.05.14-.08.2-.03.05-.07.1-.1.14,0,0,0,0-.01.01-.04.04-.08.08-.12.11-.03.02-.07.04-.1.06,0,0,0,0-.01,0-.04.02-.09.04-.13.05,0,0,0,0,0,0,0,0,0,0,0,0-.03,0-.06.01-.09.02-.04,0-.09.01-.13.01-.03,0-.05,0-.08,0l-7.53-.63c-.45-.04-.78-.43-.75-.88.04-.42.39-.75.81-.75.02,0,.05,0,.07,0l5.51.46s0,0,.01,0c.04,0,.09-.02.11-.06.02-.04.02-.1,0-.14l-4.82-6.75s-.06-.05-.1-.05H4.04s-.09.03-.11.07c-.02.05-.01.1.02.14l3.63,4.09c.3.34.27.85-.07,1.15-.15.13-.34.21-.54.21-.23,0-.46-.1-.61-.27L1.34,13.81c-.05-.06-.1-.12-.13-.19-.01-.02-.02-.05-.03-.07,0,0,0,0,0,0-.02-.06-.04-.13-.04-.2,0-.03,0-.06,0-.08s0-.06,0-.08c0-.07.02-.13.04-.19,0,0,0,0,0,0,0-.02.02-.05.03-.07.03-.07.08-.14.13-.2l5.02-5.65c.15-.17.38-.27.61-.27.2,0,.39.07.54.21.16.15.26.35.27.56.01.22-.06.43-.2.59l-3.63,4.09s-.04.09-.02.14c.02.05.07.07.11.07h9.29s.09-.02.11-.06l5.07-9.12s.02-.09,0-.13c-.02-.03-.06-.05-.1-.05,0,0-.01,0-.02,0l-5.61.94s-.09.01-.13.01c-.4,0-.74-.29-.81-.68-.04-.22.01-.43.14-.61.13-.18.32-.3.53-.33l7.53-1.26s.1-.01.14-.01M20.17,1c-.05,0-.11,0-.16.01l-7.53,1.26c-.51.09-.86.57-.77,1.09.08.46.47.79.93.79.05,0,.1,0,.15-.01l5.61-.94-5.07,9.12H4.04l3.63-4.09c.35-.39.31-.98-.08-1.33-.18-.16-.4-.24-.63-.24-.26,0-.52.11-.7.32L1.25,12.62c-.06.07-.11.14-.15.23-.01.03-.03.06-.04.09h0s0,0,0,0c-.03.07-.04.15-.05.22h0s0,.07,0,.1,0,.06,0,.1h0c0,.08.03.15.05.23,0,0,0,0,0,0,.01.03.02.06.04.09.04.08.09.16.15.22l5.02,5.65c.19.21.44.32.7.32.22,0,.45-.08.63-.24.39-.35.42-.94.08-1.33l-3.63-4.09h9.36l4.82,6.75-5.51-.46s-.05,0-.08,0c-.48,0-.9.37-.94.86-.04.52.34.97.86,1.02l7.53.63s.06,0,.09,0c.05,0,.1,0,.15-.01.03,0,.07-.01.1-.02h0s0,0,0,0h0s0,0,0,0c.05-.01.1-.03.15-.06h0s0,0,0,0h0s.09-.05.13-.08c.05-.04.1-.08.14-.12,0,0,0,0,0,0,.05-.05.09-.11.13-.18.04-.07.07-.15.09-.23l1.88-6.9c.14-.5-.16-1.02-.66-1.16-.08-.02-.17-.03-.25-.03-.42,0-.79.28-.91.69l-1.36,5-4.79-6.7,4.87-8.77,1.28,4.68c.11.42.49.7.91.7.08,0,.17-.01.25-.03.5-.14.8-.66.66-1.16l-1.88-6.9c-.02-.1-.06-.19-.11-.27h0s-.04-.06-.06-.08c-.07-.08-.15-.16-.24-.21-.11-.07-.23-.11-.36-.13h0s0,0,0,0h0s0,0,0,0h0s-.02,0-.02,0c0,0,0,0,0,0-.04,0-.07,0-.11,0h0Z"/>
</svg>