<?xml version="1.0" encoding="UTF-8"?>
<svg id="Layer_1" xmlns="http://www.w3.org/2000/svg" version="1.1" viewBox="0 0 64 64">
  <!-- Generator: Adobe Illustrator 30.0.0, SVG Export Plug-In . SVG Version: 2.1.1 Build 21)  -->
  <defs>
    <style>
      .st0, .st1 {
        fill: #fff;
      }

      .st1 {
        stroke: #000;
        stroke-miterlimit: 10;
        stroke-width: 2px;
      }
    </style>
  </defs>
  <path class="st1" d="M4.63,7.04c-.22.19-.34.47-.34.75v20.57c0,9.98,4.19,19.23,11.5,25.38,4.4,3.68,9.76,6.44,15.94,8.22.09.03.19.04.28.04s.18-.01.28-.04c6.16-1.78,11.52-4.54,15.92-8.22,7.31-6.15,11.5-15.4,11.5-25.38V7.79c0-.28-.12-.56-.34-.75-.21-.19-.5-.28-.78-.24-17.35,2.1-25.87-4.51-25.95-4.58-.37-.29-.89-.29-1.26,0-.08.07-8.54,6.68-25.97,4.58-.28-.04-.57.05-.78.24ZM52.22,36.2c0,.6-.49,1.1-1.09,1.1H12.87c-.6,0-1.09-.5-1.09-1.1v-11.32c0-.61.49-1.1,1.09-1.1h38.26c.6,0,1.09.49,1.09,1.1v11.32Z"/>
  <path class="st0" d="M21.65,28.59c-.28-.47-.89-.63-1.37-.35l-.91.54v-1.06c0-.55-.45-1-1-1s-1,.45-1,1v1.06l-.91-.54c-.48-.28-1.09-.12-1.37.35-.28.48-.12,1.09.35,1.37l.97.57-.97.57c-.48.28-.63.9-.35,1.37.19.32.52.49.86.49.17,0,.35-.04.51-.14l.91-.54v1.06c0,.55.45,1,1,1s1-.45,1-1v-1.06l.91.54c.16.09.34.14.51.14.34,0,.67-.17.86-.49.28-.48.12-1.09-.35-1.37l-.97-.57.97-.57c.48-.28.63-.9.35-1.37Z"/>
  <path class="st0" d="M30.74,28.59c-.28-.47-.89-.63-1.37-.35l-.91.54v-1.06c0-.55-.45-1-1-1s-1,.45-1,1v1.06l-.91-.54c-.48-.28-1.09-.13-1.37.35-.28.48-.12,1.09.35,1.37l.97.57-.97.57c-.48.28-.63.9-.35,1.37.19.32.52.49.86.49.17,0,.35-.04.51-.14l.91-.54v1.06c0,.55.45,1,1,1s1-.45,1-1v-1.06l.91.54c.16.09.33.14.51.14.34,0,.67-.17.86-.49.28-.48.12-1.09-.35-1.37l-.97-.57.97-.57c.48-.28.63-.9.35-1.37Z"/>
  <path class="st0" d="M39.83,28.59c-.28-.47-.89-.63-1.37-.35l-.91.54v-1.06c0-.55-.45-1-1-1s-1,.45-1,1v1.06l-.91-.54c-.48-.28-1.09-.13-1.37.35-.28.48-.12,1.09.35,1.37l.97.57-.97.57c-.48.28-.63.9-.35,1.37.19.32.52.49.86.49.17,0,.35-.04.51-.14l.91-.54v1.06c0,.55.45,1,1,1s1-.45,1-1v-1.06l.91.54c.16.09.33.14.51.14.34,0,.67-.17.86-.49.28-.48.12-1.09-.35-1.37l-.97-.57.97-.57c.48-.28.63-.9.35-1.37Z"/>
  <path class="st0" d="M48.92,28.59c-.28-.47-.89-.63-1.37-.35l-.91.54v-1.06c0-.55-.45-1-1-1s-1,.45-1,1v1.06l-.91-.54c-.48-.28-1.09-.12-1.37.35-.28.48-.12,1.09.35,1.37l.97.57-.97.57c-.48.28-.63.9-.35,1.37.19.32.52.49.86.49.17,0,.35-.04.51-.14l.91-.54v1.06c0,.55.45,1,1,1s1-.45,1-1v-1.06l.91.54c.16.09.34.14.51.14.34,0,.67-.17.86-.49.28-.48.12-1.09-.35-1.37l-.97-.57.97-.57c.48-.28.63-.9.35-1.37Z"/>
</svg>